General
Complete name                            : Contrebande [ATG 2012] 1080p.mp4
Format                                   : MPEG-4
Format profile                           : Base Media
Codec ID                                 : isom
File size                                : 1.73 GiB
Duration                                 : 1h 49mn
Overall bit rate mode                    : Variable
Overall bit rate                         : 2 257 Kbps

Video
ID                                       : 1
Format                                   : AVC
Format/Info                              : Advanced Video Codec
Format profile                           : High@L4.1
Format settings, CABAC                   : Yes
Format settings, ReFrames                : 5 frames
Codec ID                                 : avc1
Codec ID/Info                            : Advanced Video Coding
Duration                                 : 1h 49mn
Bit rate                                 : 2 000 Kbps
Maximum bit rate                         : 20.6 Mbps
Width                                    : 1 920 pixels
Height                                   : 816 pixels
Display aspect ratio                     : 2.35:1
Frame rate mode                          : Constant
Frame rate                               : 23.976 fps
Color space                              : YUV
Chroma subsampling                       : 4:2:0
Bit depth                                : 8 bits
Scan type                                : Progressive
Bits/(Pixel*Frame)                       : 0.053
Stream size                              : 1.53 GiB (89%)
Writing library                          : x264 core 118 r2085 8a62835

Audio
ID                                       : 2
Format                                   : AAC
Format/Info                              : Advanced Audio Codec
Format profile                           : LC
Codec ID                                 : 40
Duration                                 : 1h 49mn
Bit rate mode                            : Variable
Bit rate                                 : 254 Kbps
Maximum bit rate                         : 312 Kbps
Channel(s)                               : 6 channels
Channel positions                        : Front: L C R, Side: L R, LFE
Sampling rate                            : 48.0 KHz
Compression mode                         : Lossy
Stream size                              : 199 MiB (11%)
